{"title":"The.Dr.Oz.Show.2017.12.29-TrumpSux","magnet":"magnet:?xt=urn:btih:b52a13483c45a144e400b0b791b1887ccb27df63&dn=The.Dr.Oz.Show.2017.12.29-TrumpSux&tr=udp%3A%2F%2Ftracker.leechers-paradise.org%3A6969&tr=udp%3A%2F%2Fzer0day.ch%3A1337&tr=udp%3A%2F%2Fopen.demonii.com%3A1337&tr=udp%3A%2F%2Ftracker.coppersurfer.tk%3A6969&tr=udp%3A%2F%2Fexodus.desync.com%3A6969","uploader":"Dbaum2","categoryP":"video","categoryS":"tv_shows","size":"438926635","seeders":"0","leechers":"0","description":" <a href=\"http://preview.ibb.co/cWOkxG/screens.jpg\" rel=\"nofollow\" target=\"_NEW\">http://preview.ibb.co/cWOkxG/screens.jpg</a>\r\n\r\n\r\nComplete name :The.Dr.Oz.Show.2017.12.29.The.New.Anti.Aging.Shopping.List.HDTV.x264-TrumpSux.mp4.mp4\r\nFormat : MPEG-4\r\nFormat profile : Base Media / Version 2\r\nCodec ID : mp42\r\nFile size : 419 MiB\r\nDuration : 42mn 11s\r\nOverall bit rate mode : Variable\r\nOverall bit rate : 1 387 Kbps\r\nEncoded date : UTC 2017-12-30 14:08:29\r\nTagged date : UTC 2017-12-30 14:08:29\r\n\r\nVideo\r\nID : 2\r\nFormat : AVC\r\nFormat/Info : Advanced Video Codec\r\nFormat profile : <a href=\"/cdn-cgi/l/email-protection\" class=\"__cf_email__\" data-cfemail=\"642c0d030c2428574a55\">[email&#xA0;protected]</a>\r\nFormat settings, CABAC : Yes\r\nFormat settings, ReFrames : 11 frames\r\nCodec ID : avc1\r\nCodec ID/Info : Advanced Video Coding\r\nDuration : 42mn 11s\r\nBit rate mode : Variable\r\nBit rate : 1 290 Kbps\r\nMaximum bit rate : 9 800 Kbps\r\nWidth : 852 pixels\r\nHeight : 480 pixels\r\nDisplay aspect ratio : 16:9\r\nFrame rate mode : Constant\r\nFrame rate : 29.970 fps\r\nStandard : Component\r\nColor space : YUV\r\nChroma subsampling : 4:2:0\r\nBit depth : 8 bits\r\nScan type : Progressive\r\nBits/(Pixel*Frame) : 0.105\r\nStream size : 389 MiB (93%)\r\nEncoded date : UTC 2017-12-30 14:08:29\r\nTagged date : UTC 2017-12-30 14:08:29\r\nColor range : Limited\r\nColor primaries : BT.709\r\nTransfer characteristics : BT.709\r\nMatrix coefficients : BT.709\r\n\r\nAudio\r\nID : 1\r\nFormat : AAC\r\nFormat/Info : Advanced Audio Codec\r\nFormat profile : LC\r\nCodec ID : 40\r\nDuration : 42mn 11s\r\nBit rate mode : Variable\r\nBit rate : 93.4 Kbps\r\nMaximum bit rate : 576 Kbps\r\nChannel(s) : 2 channels\r\nChannel positions : Front: L R\r\nSampling rate : 48.0 KHz\r\nCompression mode : Lossy\r\nStream size : 28.2 MiB (7%)\r\nEncoded date : UTC 2017-12-30 14:08:29\r\nTagged date : UTC 2017-12-30 14:08:29","last_updated":"2017-12-31T12:07:21.523Z","parsed":{"xt":"urn:btih:b52a13483c45a144e400b0b791b1887ccb27df63","dn":"The.Dr.Oz.Show.2017.12.29-TrumpSux","tr":["udp://exodus.desync.com:6969","udp://open.demonii.com:1337","udp://tracker.coppersurfer.tk:6969","udp://tracker.leechers-paradise.org:6969","udp://zer0day.ch:1337"],"infoHash":"b52a13483c45a144e400b0b791b1887ccb27df63","infoHashBuffer":{"type":"Buffer","data":[181,42,19,72,60,69,161,68,228,0,176,183,145,177,136,124,203,39,223,99]},"name":"The.Dr.Oz.Show.2017.12.29-TrumpSux","announce":["udp://exodus.desync.com:6969","udp://open.demonii.com:1337","udp://tracker.coppersurfer.tk:6969","udp://tracker.leechers-paradise.org:6969","udp://zer0day.ch:1337"],"urlList":[]}}